<svg xmlns="http://www.w3.org/2000/svg" width="1701.58" height="1385.481" viewBox="0 0 1701.58 1385.481"><g transform="translate(1006.253 421.839) rotate(30)" opacity="0.06"><path id="Path_55" data-name="Path 55" d="M-1339.43-49.371s-142.257,189.089,61.527,383.158S-913.548,473.4-878.614,439.624s69.744-120.963,224.847-210.207,0-209.485,0-209.485-216-211.944-424.5-194.83S-1339.43-49.371-1339.43-49.371Z" transform="translate(1387.726 175.881)" fill="#251436"/></g><g transform="translate(1517.625 459.839)"><circle cx="1" cy="1" r="1" fill="#1a776f"/><circle cx="1" cy="1" r="1" transform="translate(10)" fill="#1a776f"/><circle cx="1" cy="1" r="1" transform="translate(20)" fill="#1a776f"/><circle cx="1" cy="1" r="1" transform="translate(30)" fill="#1a776f"/><circle cx="1" cy="1" r="1" transform="translate(40)" fill="#1a776f"/><circle cx="1" cy="1" r="1" transform="translate(50)" fill="#1a776f"/><circle cx="1" cy="1" r="1" transform="translate(60)" fill="#1a776f"/><circle cx="1" cy="1" r="1" transform="translate(70)" fill="#1a776f"/><circle cx="1" cy="1" r="1" transform="translate(80)" fill="#1a776f"/><circle cx="1" cy="1" r="1" transform="translate(90)" fill="#1a776f"/><circle cx="1" cy="1" r="1" transform="translate(100)" fill="#1a776f"/><circle cx="1" cy="1" r="1" transform="translate(110)" fill="#1a776f"/><circle cx="1" cy="1" r="1" transform="translate(0 10)" fill="#1a776f"/><circle cx="1" cy="1" r="1" transform="translate(10 10)" fill="#1a776f"/><circle cx="1" cy="1" r="1" transform="translate(20 10)" fill="#1a776f"/><circle cx="1" cy="1" r="1" transform="translate(30 10)" fill="#1a776f"/><circle cx="1" cy="1" r="1" transform="translate(40 10)" fill="#1a776f"/><circle cx="1" cy="1" r="1" transform="translate(50 10)" fill="#1a776f"/><circle cx="1" cy="1" r="1" transform="translate(60 10)" fill="#1a776f"/><circle cx="1" cy="1" r="1" transform="translate(70 10)" fill="#1a776f"/><circle cx="1" cy="1" r="1" transform="translate(80 10)" fill="#1a776f"/><circle cx="1" cy="1" r="1" transform="translate(90 10)" fill="#1a776f"/><circle cx="1" cy="1" r="1" transform="translate(100 10)" fill="#1a776f"/><circle cx="1" cy="1" r="1" transform="translate(110 10)" fill="#1a776f"/><circle cx="1" cy="1" r="1" transform="translate(0 20)" fill="#1a776f"/><circle cx="1" cy="1" r="1" transform="translate(10 20)" fill="#1a776f"/><circle cx="1" cy="1" r="1" transform="translate(20 20)" fill="#1a776f"/><circle cx="1" cy="1" r="1" transform="translate(30 20)" fill="#1a776f"/><circle cx="1" cy="1" r="1" transform="translate(40 20)" fill="#1a776f"/><circle cx="1" cy="1" r="1" transform="translate(50 20)" fill="#1a776f"/><circle cx="1" cy="1" r="1" transform="translate(60 20)" fill="#1a776f"/><circle cx="1" cy="1" r="1" transform="translate(70 20)" fill="#1a776f"/><circle cx="1" cy="1" r="1" transform="translate(80 20)" fill="#1a776f"/><circle cx="1" cy="1" r="1" transform="translate(90 20)" fill="#1a776f"/><circle cx="1" cy="1" r="1" transform="translate(100 20)" fill="#1a776f"/><circle cx="1" cy="1" r="1" transform="translate(110 20)" fill="#1a776f"/><circle cx="1" cy="1" r="1" transform="translate(0 30)" fill="#1a776f"/><circle cx="1" cy="1" r="1" transform="translate(10 30)" fill="#1a776f"/><circle cx="1" cy="1" r="1" transform="translate(20 30)" fill="#1a776f"/><circle cx="1" cy="1" r="1" transform="translate(30 30)" fill="#1a776f"/><circle cx="1" cy="1" r="1" transform="translate(40 30)" fill="#1a776f"/><circle cx="1" cy="1" r="1" transform="translate(50 30)" fill="#1a776f"/><circle cx="1" cy="1" r="1" transform="translate(60 30)" fill="#1a776f"/><circle cx="1" cy="1" r="1" transform="translate(70 30)" fill="#1a776f"/><circle cx="1" cy="1" r="1" transform="translate(80 30)" fill="#1a776f"/><circle cx="1" cy="1" r="1" transform="translate(90 30)" fill="#1a776f"/><circle cx="1" cy="1" r="1" transform="translate(100 30)" fill="#1a776f"/><circle cx="1" cy="1" r="1" transform="translate(110 30)" fill="#1a776f"/><circle cx="1" cy="1" r="1" transform="translate(0 40)" fill="#1a776f"/><circle cx="1" cy="1" r="1" transform="translate(10 40)" fill="#1a776f"/><circle cx="1" cy="1" r="1" transform="translate(20 40)" fill="#1a776f"/><circle cx="1" cy="1" r="1" transform="translate(30 40)" fill="#1a776f"/><circle cx="1" cy="1" r="1" transform="translate(40 40)" fill="#1a776f"/><circle cx="1" cy="1" r="1" transform="translate(50 40)" fill="#1a776f"/><circle cx="1" cy="1" r="1" transform="translate(60 40)" fill="#1a776f"/><circle cx="1" cy="1" r="1" transform="translate(70 40)" fill="#1a776f"/><circle cx="1" cy="1" r="1" transform="translate(80 40)" fill="#1a776f"/><circle cx="1" cy="1" r="1" transform="translate(90 40)" fill="#1a776f"/><circle cx="1" cy="1" r="1" transform="translate(100 40)" fill="#1a776f"/><circle cx="1" cy="1" r="1" transform="translate(110 40)" fill="#1a776f"/><circle cx="1" cy="1" r="1" transform="translate(0 50)" fill="#1a776f"/><circle cx="1" cy="1" r="1" transform="translate(10 50)" fill="#1a776f"/><circle cx="1" cy="1" r="1" transform="translate(20 50)" fill="#1a776f"/><circle cx="1" cy="1" r="1" transform="translate(30 50)" fill="#1a776f"/><circle cx="1" cy="1" r="1" transform="translate(40 50)" fill="#1a776f"/><circle cx="1" cy="1" r="1" transform="translate(50 50)" fill="#1a776f"/><circle cx="1" cy="1" r="1" transform="translate(60 50)" fill="#1a776f"/><circle cx="1" cy="1" r="1" transform="translate(70 50)" fill="#1a776f"/><circle cx="1" cy="1" r="1" transform="translate(80 50)" fill="#1a776f"/><circle cx="1" cy="1" r="1" transform="translate(90 50)" fill="#1a776f"/><circle cx="1" cy="1" r="1" transform="translate(100 50)" fill="#1a776f"/><circle cx="1" cy="1" r="1" transform="translate(110 50)" fill="#1a776f"/><circle cx="1" cy="1" r="1" transform="translate(0 60)" fill="#1a776f"/><circle cx="1" cy="1" r="1" transform="translate(10 60)" fill="#1a776f"/><circle cx="1" cy="1" r="1" transform="translate(20 60)" fill="#1a776f"/><circle cx="1" cy="1" r="1" transform="translate(30 60)" fill="#1a776f"/><circle cx="1" cy="1" r="1" transform="translate(40 60)" fill="#1a776f"/><circle cx="1" cy="1" r="1" transform="translate(50 60)" fill="#1a776f"/><circle cx="1" cy="1" r="1" transform="translate(60 60)" fill="#1a776f"/><circle cx="1" cy="1" r="1" transform="translate(70 60)" fill="#1a776f"/><circle cx="1" cy="1" r="1" transform="translate(80 60)" fill="#1a776f"/><circle cx="1" cy="1" r="1" transform="translate(90 60)" fill="#1a776f"/><circle cx="1" cy="1" r="1" transform="translate(100 60)" fill="#1a776f"/><circle cx="1" cy="1" r="1" transform="translate(110 60)" fill="#1a776f"/><circle cx="1" cy="1" r="1" transform="translate(0 70)" fill="#1a776f"/><circle cx="1" cy="1" r="1" transform="translate(10 70)" fill="#1a776f"/><circle cx="1" cy="1" r="1" transform="translate(20 70)" fill="#1a776f"/><circle cx="1" cy="1" r="1" transform="translate(30 70)" fill="#1a776f"/><circle cx="1" cy="1" r="1" transform="translate(40 70)" fill="#1a776f"/><circle cx="1" cy="1" r="1" transform="translate(50 70)" fill="#1a776f"/><circle cx="1" cy="1" r="1" transform="translate(60 70)" fill="#1a776f"/><circle cx="1" cy="1" r="1" transform="translate(70 70)" fill="#1a776f"/><circle cx="1" cy="1" r="1" transform="translate(80 70)" fill="#1a776f"/><circle cx="1" cy="1" r="1" transform="translate(90 70)" fill="#1a776f"/><circle cx="1" cy="1" r="1" transform="translate(100 70)" fill="#1a776f"/><circle cx="1" cy="1" r="1" transform="translate(110 70)" fill="#1a776f"/><circle cx="1" cy="1" r="1" transform="translate(0 80)" fill="#1a776f"/><circle cx="1" cy="1" r="1" transform="translate(10 80)" fill="#1a776f"/><circle cx="1" cy="1" r="1" transform="translate(20 80)" fill="#1a776f"/><circle cx="1" cy="1" r="1" transform="translate(30 80)" fill="#1a776f"/><circle cx="1" cy="1" r="1" transform="translate(40 80)" fill="#1a776f"/><circle cx="1" cy="1" r="1" transform="translate(50 80)" fill="#1a776f"/><circle cx="1" cy="1" r="1" transform="translate(60 80)" fill="#1a776f"/><circle cx="1" cy="1" r="1" transform="translate(70 80)" fill="#1a776f"/><circle cx="1" cy="1" r="1" transform="translate(80 80)" fill="#1a776f"/><circle cx="1" cy="1" r="1" transform="translate(90 80)" fill="#1a776f"/><circle cx="1" cy="1" r="1" transform="translate(100 80)" fill="#1a776f"/><circle cx="1" cy="1" r="1" transform="translate(110 80)" fill="#1a776f"/><circle cx="1" cy="1" r="1" transform="translate(0 90)" fill="#1a776f"/><circle cx="1" cy="1" r="1" transform="translate(10 90)" fill="#1a776f"/><circle cx="1" cy="1" r="1" transform="translate(20 90)" fill="#1a776f"/><circle cx="1" cy="1" r="1" transform="translate(30 90)" fill="#1a776f"/><circle cx="1" cy="1" r="1" transform="translate(40 90)" fill="#1a776f"/><circle cx="1" cy="1" r="1" transform="translate(50 90)" fill="#1a776f"/><circle cx="1" cy="1" r="1" transform="translate(60 90)" fill="#1a776f"/><circle cx="1" cy="1" r="1" transform="translate(70 90)" fill="#1a776f"/><circle cx="1" cy="1" r="1" transform="translate(80 90)" fill="#1a776f"/><circle cx="1" cy="1" r="1" transform="translate(90 90)" fill="#1a776f"/><circle cx="1" cy="1" r="1" transform="translate(100 90)" fill="#1a776f"/><circle cx="1" cy="1" r="1" transform="translate(110 90)" fill="#1a776f"/><circle cx="1" cy="1" r="1" transform="translate(0 100)" fill="#1a776f"/><circle cx="1" cy="1" r="1" transform="translate(10 100)" fill="#1a776f"/><circle cx="1" cy="1" r="1" transform="translate(20 100)" fill="#1a776f"/><circle cx="1" cy="1" r="1" transform="translate(30 100)" fill="#1a776f"/><circle cx="1" cy="1" r="1" transform="translate(40 100)" fill="#1a776f"/><circle cx="1" cy="1" r="1" transform="translate(50 100)" fill="#1a776f"/><circle cx="1" cy="1" r="1" transform="translate(60 100)" fill="#1a776f"/><circle cx="1" cy="1" r="1" transform="translate(70 100)" fill="#1a776f"/><circle cx="1" cy="1" r="1" transform="translate(80 100)" fill="#1a776f"/><circle cx="1" cy="1" r="1" transform="translate(90 100)" fill="#1a776f"/><circle cx="1" cy="1" r="1" transform="translate(100 100)" fill="#1a776f"/><circle cx="1" cy="1" r="1" transform="translate(110 100)" fill="#1a776f"/><circle cx="1" cy="1" r="1" transform="translate(0 110)" fill="#1a776f"/><circle cx="1" cy="1" r="1" transform="translate(10 110)" fill="#1a776f"/><circle cx="1" cy="1" r="1" transform="translate(20 110)" fill="#1a776f"/><circle cx="1" cy="1" r="1" transform="translate(30 110)" fill="#1a776f"/><circle cx="1" cy="1" r="1" transform="translate(40 110)" fill="#1a776f"/><circle cx="1" cy="1" r="1" transform="translate(50 110)" fill="#1a776f"/><circle cx="1" cy="1" r="1" transform="translate(60 110)" fill="#1a776f"/><circle cx="1" cy="1" r="1" transform="translate(70 110)" fill="#1a776f"/><circle cx="1" cy="1" r="1" transform="translate(80 110)" fill="#1a776f"/><circle cx="1" cy="1" r="1" transform="translate(90 110)" fill="#1a776f"/><circle cx="1" cy="1" r="1" transform="translate(100 110)" fill="#1a776f"/><circle cx="1" cy="1" r="1" transform="translate(110 110)" fill="#1a776f"/></g><g transform="matrix(0.998, 0.07, -0.07, 0.998, 6.938, 325.799)"><line y2="26" transform="translate(13)" fill="none" stroke="#0e6d8e" stroke-linecap="round" stroke-width="6"/><line y2="26" transform="translate(26 13) rotate(90)" fill="none" stroke="#0e6d8e" stroke-linecap="round" stroke-width="6"/></g><g transform="translate(0 83.059)"><g fill="none" stroke="#0e6d8e" stroke-width="3"><circle cx="9.5" cy="9.5" r="9.5" stroke="none"/><circle cx="9.5" cy="9.5" r="8" fill="none"/></g></g><g transform="matrix(0.951, -0.309, 0.309, 0.951, 971.465, 5.622)" opacity="0.3"><line y2="16" transform="translate(8)" fill="none" stroke="#0e6d8e" stroke-linecap="round" stroke-width="5"/><line y2="16" transform="translate(16 8) rotate(90)" fill="none" stroke="#0e6d8e" stroke-linecap="round" stroke-width="5"/></g></svg>