<svg xmlns="http://www.w3.org/2000/svg" width="1921.001" height="2213.104" viewBox="0 0 1921.001 2213.104"><g transform="translate(1665.001 911)" opacity="0.3"><circle cx="1" cy="1" r="1" fill="#200e32"/><circle cx="1" cy="1" r="1" transform="translate(10)" fill="#200e32"/><circle cx="1" cy="1" r="1" transform="translate(20)" fill="#200e32"/><circle cx="1" cy="1" r="1" transform="translate(30)" fill="#200e32"/><circle cx="1" cy="1" r="1" transform="translate(40)" fill="#200e32"/><circle cx="1" cy="1" r="1" transform="translate(50)" fill="#200e32"/><circle cx="1" cy="1" r="1" transform="translate(60)" fill="#200e32"/><circle cx="1" cy="1" r="1" transform="translate(70)" fill="#200e32"/><circle cx="1" cy="1" r="1" transform="translate(80)" fill="#200e32"/><circle cx="1" cy="1" r="1" transform="translate(90)" fill="#200e32"/><circle cx="1" cy="1" r="1" transform="translate(100)" fill="#200e32"/><circle cx="1" cy="1" r="1" transform="translate(110)" fill="#200e32"/><circle cx="1" cy="1" r="1" transform="translate(0 10)" fill="#200e32"/><circle cx="1" cy="1" r="1" transform="translate(10 10)" fill="#200e32"/><circle cx="1" cy="1" r="1" transform="translate(20 10)" fill="#200e32"/><circle cx="1" cy="1" r="1" transform="translate(30 10)" fill="#200e32"/><circle cx="1" cy="1" r="1" transform="translate(40 10)" fill="#200e32"/><circle cx="1" cy="1" r="1" transform="translate(50 10)" fill="#200e32"/><circle cx="1" cy="1" r="1" transform="translate(60 10)" fill="#200e32"/><circle cx="1" cy="1" r="1" transform="translate(70 10)" fill="#200e32"/><circle cx="1" cy="1" r="1" transform="translate(80 10)" fill="#200e32"/><circle cx="1" cy="1" r="1" transform="translate(90 10)" fill="#200e32"/><circle cx="1" cy="1" r="1" transform="translate(100 10)" fill="#200e32"/><circle cx="1" cy="1" r="1" transform="translate(110 10)" fill="#200e32"/><circle cx="1" cy="1" r="1" transform="translate(0 20)" fill="#200e32"/><circle cx="1" cy="1" r="1" transform="translate(10 20)" fill="#200e32"/><circle cx="1" cy="1" r="1" transform="translate(20 20)" fill="#200e32"/><circle cx="1" cy="1" r="1" transform="translate(30 20)" fill="#200e32"/><circle cx="1" cy="1" r="1" transform="translate(40 20)" fill="#200e32"/><circle cx="1" cy="1" r="1" transform="translate(50 20)" fill="#200e32"/><circle cx="1" cy="1" r="1" transform="translate(60 20)" fill="#200e32"/><circle cx="1" cy="1" r="1" transform="translate(70 20)" fill="#200e32"/><circle cx="1" cy="1" r="1" transform="translate(80 20)" fill="#200e32"/><circle cx="1" cy="1" r="1" transform="translate(90 20)" fill="#200e32"/><circle cx="1" cy="1" r="1" transform="translate(100 20)" fill="#200e32"/><circle cx="1" cy="1" r="1" transform="translate(110 20)" fill="#200e32"/><circle cx="1" cy="1" r="1" transform="translate(0 30)" fill="#200e32"/><circle cx="1" cy="1" r="1" transform="translate(10 30)" fill="#200e32"/><circle cx="1" cy="1" r="1" transform="translate(20 30)" fill="#200e32"/><circle cx="1" cy="1" r="1" transform="translate(30 30)" fill="#200e32"/><circle cx="1" cy="1" r="1" transform="translate(40 30)" fill="#200e32"/><circle cx="1" cy="1" r="1" transform="translate(50 30)" fill="#200e32"/><circle cx="1" cy="1" r="1" transform="translate(60 30)" fill="#200e32"/><circle cx="1" cy="1" r="1" transform="translate(70 30)" fill="#200e32"/><circle cx="1" cy="1" r="1" transform="translate(80 30)" fill="#200e32"/><circle cx="1" cy="1" r="1" transform="translate(90 30)" fill="#200e32"/><circle cx="1" cy="1" r="1" transform="translate(100 30)" fill="#200e32"/><circle cx="1" cy="1" r="1" transform="translate(110 30)" fill="#200e32"/><circle cx="1" cy="1" r="1" transform="translate(0 40)" fill="#200e32"/><circle cx="1" cy="1" r="1" transform="translate(10 40)" fill="#200e32"/><circle cx="1" cy="1" r="1" transform="translate(20 40)" fill="#200e32"/><circle cx="1" cy="1" r="1" transform="translate(30 40)" fill="#200e32"/><circle cx="1" cy="1" r="1" transform="translate(40 40)" fill="#200e32"/><circle cx="1" cy="1" r="1" transform="translate(50 40)" fill="#200e32"/><circle cx="1" cy="1" r="1" transform="translate(60 40)" fill="#200e32"/><circle cx="1" cy="1" r="1" transform="translate(70 40)" fill="#200e32"/><circle cx="1" cy="1" r="1" transform="translate(80 40)" fill="#200e32"/><circle cx="1" cy="1" r="1" transform="translate(90 40)" fill="#200e32"/><circle cx="1" cy="1" r="1" transform="translate(100 40)" fill="#200e32"/><circle cx="1" cy="1" r="1" transform="translate(110 40)" fill="#200e32"/><circle cx="1" cy="1" r="1" transform="translate(0 50)" fill="#200e32"/><circle cx="1" cy="1" r="1" transform="translate(10 50)" fill="#200e32"/><circle cx="1" cy="1" r="1" transform="translate(20 50)" fill="#200e32"/><circle cx="1" cy="1" r="1" transform="translate(30 50)" fill="#200e32"/><circle cx="1" cy="1" r="1" transform="translate(40 50)" fill="#200e32"/><circle cx="1" cy="1" r="1" transform="translate(50 50)" fill="#200e32"/><circle cx="1" cy="1" r="1" transform="translate(60 50)" fill="#200e32"/><circle cx="1" cy="1" r="1" transform="translate(70 50)" fill="#200e32"/><circle cx="1" cy="1" r="1" transform="translate(80 50)" fill="#200e32"/><circle cx="1" cy="1" r="1" transform="translate(90 50)" fill="#200e32"/><circle cx="1" cy="1" r="1" transform="translate(100 50)" fill="#200e32"/><circle cx="1" cy="1" r="1" transform="translate(110 50)" fill="#200e32"/><circle cx="1" cy="1" r="1" transform="translate(0 60)" fill="#200e32"/><circle cx="1" cy="1" r="1" transform="translate(10 60)" fill="#200e32"/><circle cx="1" cy="1" r="1" transform="translate(20 60)" fill="#200e32"/><circle cx="1" cy="1" r="1" transform="translate(30 60)" fill="#200e32"/><circle cx="1" cy="1" r="1" transform="translate(40 60)" fill="#200e32"/><circle cx="1" cy="1" r="1" transform="translate(50 60)" fill="#200e32"/><circle cx="1" cy="1" r="1" transform="translate(60 60)" fill="#200e32"/><circle cx="1" cy="1" r="1" transform="translate(70 60)" fill="#200e32"/><circle cx="1" cy="1" r="1" transform="translate(80 60)" fill="#200e32"/><circle cx="1" cy="1" r="1" transform="translate(90 60)" fill="#200e32"/><circle cx="1" cy="1" r="1" transform="translate(100 60)" fill="#200e32"/><circle cx="1" cy="1" r="1" transform="translate(110 60)" fill="#200e32"/><circle cx="1" cy="1" r="1" transform="translate(0 70)" fill="#200e32"/><circle cx="1" cy="1" r="1" transform="translate(10 70)" fill="#200e32"/><circle cx="1" cy="1" r="1" transform="translate(20 70)" fill="#200e32"/><circle cx="1" cy="1" r="1" transform="translate(30 70)" fill="#200e32"/><circle cx="1" cy="1" r="1" transform="translate(40 70)" fill="#200e32"/><circle cx="1" cy="1" r="1" transform="translate(50 70)" fill="#200e32"/><circle cx="1" cy="1" r="1" transform="translate(60 70)" fill="#200e32"/><circle cx="1" cy="1" r="1" transform="translate(70 70)" fill="#200e32"/><circle cx="1" cy="1" r="1" transform="translate(80 70)" fill="#200e32"/><circle cx="1" cy="1" r="1" transform="translate(90 70)" fill="#200e32"/><circle cx="1" cy="1" r="1" transform="translate(100 70)" fill="#200e32"/><circle cx="1" cy="1" r="1" transform="translate(110 70)" fill="#200e32"/><circle cx="1" cy="1" r="1" transform="translate(0 80)" fill="#200e32"/><circle cx="1" cy="1" r="1" transform="translate(10 80)" fill="#200e32"/><circle cx="1" cy="1" r="1" transform="translate(20 80)" fill="#200e32"/><circle cx="1" cy="1" r="1" transform="translate(30 80)" fill="#200e32"/><circle cx="1" cy="1" r="1" transform="translate(40 80)" fill="#200e32"/><circle cx="1" cy="1" r="1" transform="translate(50 80)" fill="#200e32"/><circle cx="1" cy="1" r="1" transform="translate(60 80)" fill="#200e32"/><circle cx="1" cy="1" r="1" transform="translate(70 80)" fill="#200e32"/><circle cx="1" cy="1" r="1" transform="translate(80 80)" fill="#200e32"/><circle cx="1" cy="1" r="1" transform="translate(90 80)" fill="#200e32"/><circle cx="1" cy="1" r="1" transform="translate(100 80)" fill="#200e32"/><circle cx="1" cy="1" r="1" transform="translate(110 80)" fill="#200e32"/><circle cx="1" cy="1" r="1" transform="translate(0 90)" fill="#200e32"/><circle cx="1" cy="1" r="1" transform="translate(10 90)" fill="#200e32"/><circle cx="1" cy="1" r="1" transform="translate(20 90)" fill="#200e32"/><circle cx="1" cy="1" r="1" transform="translate(30 90)" fill="#200e32"/><circle cx="1" cy="1" r="1" transform="translate(40 90)" fill="#200e32"/><circle cx="1" cy="1" r="1" transform="translate(50 90)" fill="#200e32"/><circle cx="1" cy="1" r="1" transform="translate(60 90)" fill="#200e32"/><circle cx="1" cy="1" r="1" transform="translate(70 90)" fill="#200e32"/><circle cx="1" cy="1" r="1" transform="translate(80 90)" fill="#200e32"/><circle cx="1" cy="1" r="1" transform="translate(90 90)" fill="#200e32"/><circle cx="1" cy="1" r="1" transform="translate(100 90)" fill="#200e32"/><circle cx="1" cy="1" r="1" transform="translate(110 90)" fill="#200e32"/><circle cx="1" cy="1" r="1" transform="translate(0 100)" fill="#200e32"/><circle cx="1" cy="1" r="1" transform="translate(10 100)" fill="#200e32"/><circle cx="1" cy="1" r="1" transform="translate(20 100)" fill="#200e32"/><circle cx="1" cy="1" r="1" transform="translate(30 100)" fill="#200e32"/><circle cx="1" cy="1" r="1" transform="translate(40 100)" fill="#200e32"/><circle cx="1" cy="1" r="1" transform="translate(50 100)" fill="#200e32"/><circle cx="1" cy="1" r="1" transform="translate(60 100)" fill="#200e32"/><circle cx="1" cy="1" r="1" transform="translate(70 100)" fill="#200e32"/><circle cx="1" cy="1" r="1" transform="translate(80 100)" fill="#200e32"/><circle cx="1" cy="1" r="1" transform="translate(90 100)" fill="#200e32"/><circle cx="1" cy="1" r="1" transform="translate(100 100)" fill="#200e32"/><circle cx="1" cy="1" r="1" transform="translate(110 100)" fill="#200e32"/><circle cx="1" cy="1" r="1" transform="translate(0 110)" fill="#200e32"/><circle cx="1" cy="1" r="1" transform="translate(10 110)" fill="#200e32"/><circle cx="1" cy="1" r="1" transform="translate(20 110)" fill="#200e32"/><circle cx="1" cy="1" r="1" transform="translate(30 110)" fill="#200e32"/><circle cx="1" cy="1" r="1" transform="translate(40 110)" fill="#200e32"/><circle cx="1" cy="1" r="1" transform="translate(50 110)" fill="#200e32"/><circle cx="1" cy="1" r="1" transform="translate(60 110)" fill="#200e32"/><circle cx="1" cy="1" r="1" transform="translate(70 110)" fill="#200e32"/><circle cx="1" cy="1" r="1" transform="translate(80 110)" fill="#200e32"/><circle cx="1" cy="1" r="1" transform="translate(90 110)" fill="#200e32"/><circle cx="1" cy="1" r="1" transform="translate(100 110)" fill="#200e32"/><circle cx="1" cy="1" r="1" transform="translate(110 110)" fill="#200e32"/></g><path d="M7600.167,8483.187c-40.636,0-85.328-7.56-132.643-15.563l-.843-.143q-4.129-.7-8.284-1.4c-24.729-4.169-51.131-8.512-78.116-11.761a678.341,678.341,0,0,0-81.322-5.346c-9.743,0-19.4.273-28.69.813-9.778.567-19.494,1.448-28.877,2.618-9.809,1.224-19.571,2.8-29.016,4.69-9.836,1.969-19.628,4.333-29.105,7.029a495.845,495.845,0,0,1-58.747,13.113,341.816,341.816,0,0,1-52.368,4.319,254.116,254.116,0,0,1-26.61-1.354,206.942,206.942,0,0,1-24.443-4.032V7986.452a509.381,509.381,0,0,1,75.431-82.588,477.219,477.219,0,0,1,88.727-61.627,443,443,0,0,1,98.135-38.538,414.029,414.029,0,0,1,103.655-13.319c13.266,0,26.668.664,39.833,1.974,13.313,1.324,26.722,3.342,39.854,6a406.857,406.857,0,0,1,39.668,10.138,416.691,416.691,0,0,1,39.277,14.394,373.81,373.81,0,0,1,77.381,44.4,386.9,386.9,0,0,1,33.238,27.81A404.215,404.215,0,0,1,7685.949,7926a436.814,436.814,0,0,1,48.66,69.22,480.511,480.511,0,0,1,34.708,75.9,499.712,499.712,0,0,1,21.026,78.747,473.321,473.321,0,0,1,7.618,77.773,398.422,398.422,0,0,1-5.519,72.976,296.893,296.893,0,0,1-18.383,64.355,282.852,282.852,0,0,1-15.684,31.818,210.234,210.234,0,0,1-17.6,25.944,167.76,167.76,0,0,1-19.429,20.57,146.619,146.619,0,0,1-43.948,27.037,167.651,167.651,0,0,1-24.331,7.474,208.483,208.483,0,0,1-25.774,4.115C7618.792,8482.763,7609.667,8483.187,7600.167,8483.187Z" transform="translate(-7021.102 -6270.083)" fill="#c4977f" opacity="0.11"/><path d="M7399.564,8679.667a388.587,388.587,0,0,1-40.783-2.189,430.41,430.41,0,0,1-44.311-7.1,481.384,481.384,0,0,1-47.6-12.8c-16.746-5.422-33.783-11.915-50.637-19.3-17.711-7.759-35.689-16.705-53.435-26.591-18.59-10.356-37.428-22.023-55.988-34.679-19.391-13.222-39.005-27.877-58.3-43.562-20.109-16.35-40.419-34.263-60.365-53.242a655.475,655.475,0,0,1-49.043-51.879,543.287,543.287,0,0,1-38.462-51.327,465.752,465.752,0,0,1-28.9-50.388,415.588,415.588,0,0,1-20.369-49.066,375.892,375.892,0,0,1-16.6-175.31,406.157,406.157,0,0,1,16.3-69.688,421.177,421.177,0,0,1,21.78-53.6,373.574,373.574,0,0,1,19.073-34.42c4.851-7.7,8.043-11.979,8.176-12.157.012-.024,1.193-2.446,3.822-6.709a194.944,194.944,0,0,1,12.616-17.894,274.556,274.556,0,0,1,23.141-25.733,340.146,340.146,0,0,1,35.4-30.227c32.592-24.275,71.108-44.646,114.477-60.547,12.535-4.6,25.65-8.874,38.981-12.717,14.033-4.044,28.688-7.715,43.559-10.912,15.6-3.354,31.873-6.277,48.354-8.689,17.232-2.522,35.187-4.557,53.363-6.048,11.378-.933,23.079-1.406,34.775-1.406,11.4,0,23.1.449,34.781,1.334,11.364.861,23.023,2.159,34.651,3.856a583.761,583.761,0,0,1,68.476,14.394v905.455A347.473,347.473,0,0,1,7399.564,8679.667Z" transform="translate(-5525.999 -7522)" fill="none" stroke="#c4977f" stroke-width="1"/><g transform="translate(758.001 3)" opacity="0.47"><line y2="26" transform="translate(13)" fill="none" stroke="#0e6d8e" stroke-linecap="round" stroke-width="6"/><line y2="26" transform="translate(26 13) rotate(90)" fill="none" stroke="#0e6d8e" stroke-linecap="round" stroke-width="6"/></g><g transform="matrix(0.391, -0.921, 0.921, 0.391, 1844.955, 138.887)"><line y2="26" transform="translate(13)" fill="none" stroke="#0e6d8e" stroke-linecap="round" stroke-width="6"/><line y2="26" transform="translate(26 13) rotate(90)" fill="none" stroke="#0e6d8e" stroke-linecap="round" stroke-width="6"/></g><g transform="translate(1318.206 2139.478) rotate(-69)" opacity="0.57"><line y2="26" transform="translate(13)" fill="none" stroke="#200e32" stroke-linecap="round" stroke-width="6"/><line y2="26" transform="translate(26 13) rotate(90)" fill="none" stroke="#200e32" stroke-linecap="round" stroke-width="6"/></g><g transform="translate(185.001 220)" opacity="0.21"><g fill="none" stroke="#c4977f" stroke-width="3"><circle cx="9.5" cy="9.5" r="9.5" stroke="none"/><circle cx="9.5" cy="9.5" r="8" fill="none"/></g></g></svg>