<?xml version="1.0" encoding="utf-8"?>
<!-- Generator: Adobe Illustrator 25.2.3, SVG Export Plug-In . SVG Version: 6.00 Build 0)  -->
<svg version="1.1" id="Layer_1" xmlns="http://www.w3.org/2000/svg" xmlns:xlink="http://www.w3.org/1999/xlink" x="0px" y="0px"
	 viewBox="0 0 1009.4 770.2" style="enable-background:new 0 0 1009.4 770.2;" xml:space="preserve">
<style type="text/css">
	.st0{fill:#FFFFFF;}
	.st1{fill:#1E2958;}
	.st2{opacity:0.1;fill:#036C91;enable-background:new    ;}
</style>
<path class="st0" d="M1009.4,60.6V0h-80.9C959.7,21.6,987,42.5,1009.4,60.6z"/>
<path class="st0" d="M755.8,720.1c-50,48.3-279.8,126.2-571.4-151.3S96.4,21,96.4,21s4-8.1,13.6-20.9H0v768.2h1009.4V462.1
	C844.5,574,800.2,677.2,755.8,720.1z"/>
<path class="st1" d="M1009.4,0h-80.9c31.1,21.5,58.4,42.5,80.9,60.6V0z"/>
<path class="st1" d="M1009.4,462.1c-107.7,73.1-164,142.5-202.4,193.8c41.1-40.3,98.5-97.7,202.4-153.4V462.1z"/>
<path class="st2" d="M110,0H81.7c-8.9,10.4-12.6,17-12.6,17S-73.8,181.7,51.5,376.7C-22.2,178.6,96.5,21,96.5,21S100.4,12.8,110,0z"
	/>
<rect y="768.2" class="st0" width="1009.4" height="2"/>
</svg>
